<?xml version="1.0" encoding="UTF-8" standalone="no"?>
<!-- Created with Inkscape (http://www.inkscape.org/) -->

<svg
   width="170mm"
   height="200mm"
   viewBox="0 0 170 200"
   version="1.1"
   id="svg5"
   inkscape:version="1.1.1 (3bf5ae0d25, 2021-09-20)"
   sodipodi:docname="ornamentHolder-D.svg"
   xmlns:inkscape="http://www.inkscape.org/namespaces/inkscape"
   xmlns:sodipodi="http://sodipodi.sourceforge.net/DTD/sodipodi-0.dtd"
   xmlns="http://www.w3.org/2000/svg"
   xmlns:svg="http://www.w3.org/2000/svg">
  <sodipodi:namedview
     id="namedview7"
     pagecolor="#ffffff"
     bordercolor="#666666"
     borderopacity="1.0"
     inkscape:pageshadow="2"
     inkscape:pageopacity="0.0"
     inkscape:pagecheckerboard="0"
     inkscape:document-units="mm"
     showgrid="false"
     inkscape:zoom="9.0907191"
     inkscape:cx="524.32596"
     inkscape:cy="673.43408"
     inkscape:window-width="1600"
     inkscape:window-height="831"
     inkscape:window-x="0"
     inkscape:window-y="0"
     inkscape:window-maximized="1"
     inkscape:current-layer="layer1" />
  <defs
     id="defs2" />
  <g
     inkscape:label="Layer 1"
     inkscape:groupmode="layer"
     id="layer1">
    <path
       style="fill:#800080;fill-opacity:1;stroke:#000000;stroke-width:0.995627;stroke-linecap:round;stroke-linejoin:round;stroke-miterlimit:4;stroke-dasharray:none;stroke-dashoffset:0;stroke-opacity:1"
       d="m 103.06095,20.410756 c -1.88093,6.326956 -6.590747,8.246797 -10.175113,8.668526 -3.817731,0.385981 -6.665272,-1.265025 -9.139406,-3.265457 -2.818861,-3.276225 -3.693194,-5.220843 -3.488109,-9.209154 -0.145256,-4.700666 -2.142699,-0.380879 0.162648,6.280136 1.683101,3.232324 2.242519,4.016474 6.35402,6.538787 4.772708,2.026685 8.254384,1.093402 11.701246,-0.469223 3.348994,-1.704983 5.628574,-6.016943 6.801244,-9.346538 6.97462,3.636184 7.10997,3.456817 12.16937,-1.503395 5.24674,5.535226 5.4599,7.07204 10.90051,15.72364 2.20457,4.470139 6.64154,16.603296 7.68075,20.073132 4.231,14.923002 4.66467,22.864995 6.37799,38.452226 1.08342,9.194264 1.44822,18.615994 -0.70017,27.674854 -2.49652,11.80068 -6.09437,18.70257 -8.59713,35.60819 -0.7132,7.48666 -1.21169,12.51812 -1.2159,16.33032 -0.016,13.74899 0,0 -0.016,13.74899 h 13.17129 c -0.059,-10.01199 -0.0603,-20.03791 0.36793,-30.04157 0.28443,-7.18427 0.75367,-14.35825 1.53925,-21.5095 1.33586,-11.86622 2.18762,-23.87644 0.82771,-35.791664 -1.59498,-15.584858 -2.87949,-31.449804 -8.15838,-46.202745 -2.45596,-7.288647 -5.564,-14.379482 -9.44254,-20.90425 C 121.248,18.713564 111.3614,3.315612 103.06095,20.410756 Z"
       id="path6199"
       sodipodi:nodetypes="ccccccccccccccccccccccc" />
  </g>
</svg>
